HIERARCHY
ROOT joint_Root
{
	OFFSET 0.0 0.0 0.0
	CHANNELS 6 Xposition Yposition Zposition Zrotation Xrotation Yrotation 
	JOINT Hips
	{
		OFFSET -17.1583 93.1646 452.98
		CHANNELS 6 Xposition Yposition Zposition Zrotation Xrotation Yrotation 
		JOINT Spine
		{
			OFFSET 15.7357 0.0 0.0
			CHANNELS 6 Xposition Yposition Zposition Zrotation Xrotation Yrotation 
			JOINT Chest
			{
				OFFSET 8.98455 -0.406207 0.0
				CHANNELS 6 Xposition Yposition Zposition Zrotation Xrotation Yrotation 
				JOINT Neck
				{
					OFFSET 16.3773 0.0 0.0
					CHANNELS 6 Xposition Yposition Zposition Zrotation Xrotation Yrotation 
					JOINT Head
					{
						OFFSET 6.45672 0.0 0.0
						CHANNELS 6 Xposition Yposition Zposition Zrotation Xrotation Yrotation 
						End Site
						{
							OFFSET 0.0 0.0 0.0
						}
					}
				}
				JOINT Shoulder_L
				{
					OFFSET 12.9942 -0.242716 4.98039
					CHANNELS 6 Xposition Yposition Zposition Zrotation Xrotation Yrotation 
					JOINT UpperArm_L
					{
						OFFSET 5.34809 0.0 0.0
						CHANNELS 6 Xposition Yposition Zposition Zrotation Xrotation Yrotation 
						JOINT LowerArm_L
						{
							OFFSET 24.3286 1.87007e-05 0.0
							CHANNELS 6 Xposition Yposition Zposition Zrotation Xrotation Yrotation 
							JOINT Hand_L
							{
								OFFSET 22.2916 0.0 0.0
								CHANNELS 6 Xposition Yposition Zposition Zrotation Xrotation Yrotation 
								End Site
								{
									OFFSET 0.0 0.0 0.0
								}
							}
						}
					}
				}
				JOINT Shoulder_R
				{
					OFFSET 12.9945 -0.242716 -4.98039
					CHANNELS 6 Xposition Yposition Zposition Zrotation Xrotation Yrotation 
					JOINT UpperArm_R
					{
						OFFSET -5.34813 0.0 0.0
						CHANNELS 6 Xposition Yposition Zposition Zrotation Xrotation Yrotation 
						JOINT LowerArm_R
						{
							OFFSET -24.3289 0.000322201 0.0
							CHANNELS 6 Xposition Yposition Zposition Zrotation Xrotation Yrotation 
							JOINT Hand_R
							{
								OFFSET -22.2915 -0.000108084 0.0
								CHANNELS 6 Xposition Yposition Zposition Zrotation Xrotation Yrotation 
								End Site
								{
									OFFSET 0.0 0.0 0.0
								}
							}
						}
					}
				}
			}
		}
		JOINT UpperLeg_L
		{
			OFFSET -2.19248 -6.46944 0.0
			CHANNELS 6 Xposition Yposition Zposition Zrotation Xrotation Yrotation 
			JOINT LowerLeg_L
			{
				OFFSET 39.0811 0.0 -1.23785e-05
				CHANNELS 6 Xposition Yposition Zposition Zrotation Xrotation Yrotation 
				JOINT Foot_L
				{
					OFFSET 40.9854 0.0 -1.26872e-05
					CHANNELS 6 Xposition Yposition Zposition Zrotation Xrotation Yrotation 
					JOINT Toes_L
					{
						OFFSET 11.7543 0.0 0.0
						CHANNELS 6 Xposition Yposition Zposition Zrotation Xrotation Yrotation 
						End Site
						{
							OFFSET 0.0 0.0 0.0
						}
					}
				}
			}
		}
		JOINT UpperLeg_R
		{
			OFFSET -2.19251 6.46944 0.0
			CHANNELS 6 Xposition Yposition Zposition Zrotation Xrotation Yrotation 
			JOINT LowerLeg_R
			{
				OFFSET -39.0811 -0.00228153 -0.0401928
				CHANNELS 6 Xposition Yposition Zposition Zrotation Xrotation Yrotation 
				JOINT Foot_R
				{
					OFFSET -40.9854 0.0 0.0
					CHANNELS 6 Xposition Yposition Zposition Zrotation Xrotation Yrotation 
					JOINT Toes_R
					{
						OFFSET -11.7543 0.0 0.0
						CHANNELS 6 Xposition Yposition Zposition Zrotation Xrotation Yrotation 
						End Site
						{
							OFFSET 0.0 0.0 0.0
						}
					}
				}
			}
		}
	}
}
MOTION
Frames:	7
Frame Time:	0.0333333
0.000000 0.000000 0.000000 0.000000 0.000000 -0.000000 153.005000 92.051400 216.087000 101.762000 -64.649000 11.457400 15.735700 0.000005 -0.000001 62.976400 85.410800 -64.118100 8.984550 -0.406207 -0.000000 0.372774 -4.095350 -2.269080 16.377300 -0.000001 -0.000001 2.994550 -3.366520 -0.984696 6.456720 -0.000001 -0.000000 0.712287 -6.042270 0.664025 12.994200 -0.242716 4.980390 -92.243100 6.200610 -70.067500 5.348090 -0.000007 -0.000001 -69.227600 -3.888090 -2.357820 24.328600 0.000019 0.000005 25.062500 28.905600 -44.050900 22.291600 -0.000001 0.000005 64.309300 4.005950 24.141900 12.994500 -0.242716 -4.980390 89.296500 2.111220 -71.566800 -5.348130 -0.000001 -0.000004 -73.838900 1.496700 -0.210532 -24.328900 0.000322 -0.000009 0.400721 5.816030 -3.959210 -22.291500 -0.000108 -0.000004 37.244200 5.326850 -0.693917 -2.192480 -6.469440 -0.000000 -175.994000 -5.437720 -2.038320 39.081100 -0.000007 -0.000012 -0.037268 0.095441 21.329600 40.985400 -0.000006 -0.000013 -14.973000 8.758240 -62.477300 11.754300 -0.000000 0.000003 0.002455 0.093335 -12.791700 -2.192510 6.469440 -0.000001 -175.053000 -6.183680 154.790000 -39.081100 -0.002282 -0.040193 -0.104994 0.059319 61.263900 -40.985400 0.000008 0.000006 2.179070 -20.844300 -61.029500 -11.754300 -0.000006 -0.000006 -0.001075 0.184129 -9.104060
0.000000 0.000000 0.000000 0.000000 0.000000 -0.000000 150.950000 92.540500 217.450000 101.064000 -67.857500 9.841040 15.735700 0.000005 -0.000001 58.691200 85.544000 -59.536100 8.984550 -0.406207 -0.000000 -0.183246 -4.571420 -1.696650 16.377300 -0.000001 -0.000001 2.795500 -2.329460 -1.023910 6.456720 -0.000001 -0.000000 0.376949 -4.005100 1.039580 12.994200 -0.242716 4.980390 -92.180500 6.132800 -70.383800 5.348090 -0.000007 -0.000001 -68.626300 -4.430930 -5.253430 24.328600 0.000019 0.000005 29.007900 28.522800 -49.263700 22.291600 -0.000001 0.000005 64.209200 3.974510 24.587200 12.994500 -0.242716 -4.980390 89.467500 1.615940 -71.760900 -5.348130 -0.000001 -0.000004 -72.095800 -0.573243 1.943460 -24.328900 0.000322 -0.000009 0.417353 6.731030 -3.565380 -22.291500 -0.000108 -0.000004 37.295500 5.332370 -0.854311 -2.192480 -6.469440 -0.000000 -175.522000 -7.162470 -0.208102 39.081100 -0.000007 -0.000012 -0.016069 0.045487 19.456700 40.985400 -0.000006 -0.000013 -15.022500 7.371950 -61.315800 11.754300 -0.000000 0.000003 0.002252 0.057998 -14.224300 -2.192510 6.469440 -0.000001 -174.957000 -8.218450 152.426000 -39.081100 -0.002282 -0.040193 -0.099227 0.078468 52.554800 -40.985400 0.000008 0.000006 1.739110 -23.210000 -62.989900 -11.754300 -0.000006 -0.000006 -0.000754 0.179510 -9.291770
0.000000 0.000000 0.000000 0.000000 0.000000 -0.000000 148.865000 92.757800 218.819000 100.322000 -70.255700 8.096080 15.735700 0.000005 -0.000001 53.808500 85.598500 -54.401200 8.984550 -0.406207 -0.000000 -0.687195 -5.153230 -1.216400 16.377300 -0.000001 -0.000001 2.206500 -1.489570 -0.894032 6.456720 -0.000001 -0.000000 0.257752 -2.385270 1.438900 12.994200 -0.242716 4.980390 -92.047800 5.909690 -70.849000 5.348090 -0.000007 -0.000001 -68.253300 -5.453400 -7.750690 24.328600 0.000019 0.000005 32.691200 27.170100 -54.566900 22.291600 -0.000001 0.000005 63.800900 3.950900 24.919200 12.994500 -0.242716 -4.980390 89.634000 1.117780 -71.871000 -5.348130 -0.000001 -0.000004 -70.310900 -2.065700 4.080540 -24.328900 0.000322 -0.000009 0.376779 6.561740 -3.302650 -22.291500 -0.000108 -0.000004 37.869000 5.322850 -0.576955 -2.192480 -6.469440 -0.000000 -175.349000 -8.837470 1.438610 39.081100 -0.000007 -0.000012 -0.001743 0.005432 17.783600 40.985400 -0.000006 -0.000013 -14.497600 6.442880 -60.735700 11.754300 -0.000000 0.000003 0.001323 0.026466 -15.503200 -2.192510 6.469440 -0.000001 -175.759000 -10.133900 151.155000 -39.081100 -0.002282 -0.040193 -0.064312 0.075498 41.834600 -40.985400 0.000008 0.000006 1.445900 -22.341600 -62.959100 -11.754300 -0.000006 -0.000006 -0.001081 0.184220 -9.100370
0.000000 0.000000 0.000000 0.000000 0.000000 -0.000000 146.587000 92.676400 220.208000 99.714400 -71.424200 6.994820 15.735700 0.000005 -0.000001 48.778900 85.360700 -49.166700 8.984550 -0.406207 -0.000000 -0.806761 -6.084010 -0.818557 16.377300 -0.000001 -0.000001 1.657910 -0.955027 -0.921915 6.456720 -0.000001 -0.000000 -0.059098 -1.119890 2.014190 12.994200 -0.242716 4.980390 -91.962700 5.850430 -71.418200 5.348090 -0.000007 -0.000001 -68.092500 -6.695960 -10.057900 24.328600 0.000019 0.000005 35.652800 25.190700 -59.316200 22.291600 -0.000001 0.000005 63.377000 3.917650 25.383800 12.994500 -0.242716 -4.980390 89.737500 0.805895 -71.957900 -5.348130 -0.000001 -0.000004 -68.261900 -4.524800 6.234870 -24.328900 0.000322 -0.000009 0.340075 6.796280 -2.880350 -22.291500 -0.000108 -0.000004 38.716800 5.312780 -0.288914 -2.192480 -6.469440 -0.000000 -175.300000 -9.952690 3.215950 39.081100 -0.000007 -0.000012 -0.000955 0.003141 16.902800 40.985400 -0.000006 -0.000013 -13.744500 5.963700 -60.684000 11.754300 -0.000000 0.000003 -0.000419 -0.006773 -16.852600 -2.192510 6.469440 -0.000001 -177.044000 -10.796100 151.437000 -39.081100 -0.002282 -0.040193 -0.027303 0.052529 30.225800 -40.985400 0.000008 0.000006 0.848849 -19.565700 -62.304400 -11.754300 -0.000006 -0.000006 -0.001757 0.193305 -8.731050
0.000000 0.000000 0.000000 0.000000 0.000000 -0.000000 143.980000 92.338600 221.587000 99.257000 -71.497500 6.417290 15.735700 0.000005 -0.000001 44.774900 84.974100 -44.998100 8.984550 -0.406207 -0.000000 -0.698826 -7.117510 -0.490021 16.377300 -0.000001 -0.000001 1.158110 -0.834764 -0.974351 6.456720 -0.000001 -0.000000 -0.403999 -0.301350 2.509680 12.994200 -0.242716 4.980390 -91.871900 5.822730 -72.144000 5.348090 -0.000007 -0.000001 -68.522700 -7.671630 -12.316100 24.328600 0.000019 0.000005 38.226800 23.415600 -63.227000 22.291600 -0.000001 0.000005 62.588500 3.890450 25.762100 12.994500 -0.242716 -4.980390 89.771200 0.695781 -71.799600 -5.348130 -0.000001 -0.000004 -66.074500 -6.808340 8.514860 -24.328900 0.000322 -0.000009 0.269169 7.076880 -2.192550 -22.291500 -0.000108 -0.000004 39.477500 5.306920 -0.124134 -2.192480 -6.469440 -0.000000 -175.306000 -9.916310 4.978050 39.081100 -0.000007 -0.000012 -0.007808 0.025737 16.875500 40.985400 -0.000006 -0.000013 -12.779800 5.467180 -60.865300 11.754300 -0.000000 0.000003 -0.004240 -0.053921 -18.770300 -2.192510 6.469440 -0.000001 -178.647000 -10.964300 152.523000 -39.081100 -0.002282 -0.040193 -0.010109 0.037499 19.706300 -40.985400 0.000008 0.000006 0.692618 -16.925700 -61.949600 -11.754300 -0.000006 -0.000006 -0.002295 0.200015 -8.458150
0.000000 0.000000 0.000000 0.000000 0.000000 -0.000000 140.900000 91.825300 222.830000 98.130200 -71.342000 5.273110 15.735700 0.000005 -0.000001 41.994000 84.676800 -41.989900 8.984550 -0.406207 -0.000000 -0.640636 -7.911200 -0.036057 16.377300 -0.000001 -0.000001 0.768332 -0.893072 -0.996511 6.456720 -0.000001 -0.000000 -0.702695 0.188685 2.922200 12.994200 -0.242716 4.980390 -91.810900 5.845870 -72.754800 5.348090 -0.000007 -0.000001 -69.291900 -8.020820 -14.253100 24.328600 0.000019 0.000005 40.377300 22.147400 -66.091000 22.291600 -0.000001 0.000005 61.266100 3.888600 25.787000 12.994500 -0.242716 -4.980390 89.738400 0.780853 -71.480800 -5.348130 -0.000001 -0.000004 -63.987300 -8.344810 10.703600 -24.328900 0.000322 -0.000009 0.129467 7.834430 -0.957490 -22.291500 -0.000108 -0.000004 40.175000 5.296100 0.182061 -2.192480 -6.469440 -0.000000 -174.938000 -9.286310 6.331070 39.081100 -0.000007 -0.000012 -0.015459 0.047443 18.047500 40.985400 -0.000006 -0.000013 -12.153100 4.768580 -61.131000 11.754300 -0.000000 0.000003 -0.012257 -0.119804 -21.461100 -2.192510 6.469440 -0.000001 -179.144000 -9.960340 153.930000 -39.081100 -0.002282 -0.040193 -0.003650 0.034569 11.425700 -40.985400 0.000008 0.000006 0.310241 -15.305400 -62.043700 -11.754300 -0.000006 -0.000006 -0.002465 0.202060 -8.374970
0.000000 0.000000 0.000000 0.000000 0.000000 -0.000000 137.320000 91.231100 223.973000 96.913600 -71.383900 3.882370 15.735700 0.000005 -0.000001 39.205200 84.584300 -38.973200 8.984550 -0.406207 -0.000000 -0.901978 -8.408870 0.398059 16.377300 -0.000001 -0.000001 0.403735 -0.912390 -0.780435 6.456720 -0.000001 -0.000000 -0.712038 0.471925 2.946640 12.994200 -0.242716 4.980390 -91.790100 5.929920 -73.168600 5.348090 -0.000007 -0.000001 -70.322000 -7.994890 -15.377900 24.328600 0.000019 0.000005 41.460100 21.162800 -67.773400 22.291600 -0.000001 0.000005 60.249300 3.893790 25.715300 12.994500 -0.242716 -4.980390 89.676700 0.956977 -71.333200 -5.348130 -0.000001 -0.000004 -62.243000 -9.449920 12.969200 -24.328900 0.000322 -0.000009 -0.001094 8.189050 0.000031 -22.291500 -0.000108 -0.000004 40.723500 5.289390 0.366942 -2.192480 -6.469440 -0.000000 -174.385000 -8.496110 7.034490 39.081100 -0.000007 -0.000012 -0.018380 0.049449 20.389600 40.985400 -0.000006 -0.000013 -11.544800 4.073540 -60.606700 11.754300 -0.000000 0.000003 -0.032739 -0.229764 -25.996800 -2.192510 6.469440 -0.000001 -177.745000 -6.196460 154.552000 -39.081100 -0.002282 -0.040193 0.003950 -0.004341 7.964940 -40.985400 0.000008 0.000006 -2.089280 -11.919200 -63.494900 -11.754300 -0.000006 -0.000006 -0.002047 0.196971 -8.581960
